<svg width="32" height="29" viewBox="0 0 32 29" fill="#1E4176" xmlns="http://www.w3.org/2000/svg">
<path d="M3.71656 4C7.18681 4 10.5298 0 14 0V0H18V0C21.4702 0 24.8132 4 28.2834 4H29C30.6569 4 32 5.34315 32 7V25C32 26.6569 30.6569 28 29 28V28C28.4477 28 28.0048 28.5427 27.5404 28.8416C27.3846 28.9418 27.1991 29 27 29V29C26.1324 29 25.2967 28 24.4291 28H7.57086C6.7033 28 5.86756 29 5 29V29C4.80092 29 4.61544 28.9418 4.4596 28.8416C3.99516 28.5427 3.55228 28 3 28V28C1.34315 28 0 26.6569 0 25V7C0 5.34315 1.34315 4 3 4H3.71656ZM14 2C12.2649 2 13.4066 4 15.1417 4H16.8583C18.5934 4 19.7351 2 18 2V2H14V2ZM3 6C2.44772 6 2 6.44772 2 7V25C2 25.5523 2.44772 26 3 26V26C4.65685 26 6 24.6569 6 23V9C6 7.34315 4.65685 6 3 6V6ZM30 25V7C30 6.44772 29.5523 6 29 6V6C27.3431 6 26 7.34315 26 9V23C26 24.6569 27.3431 26 29 26V26C29.5523 26 30 25.5523 30 25ZM16 26C20.4183 26 24 22.4183 24 18V14C24 9.58172 20.4183 6 16 6V6C11.5817 6 8 9.58172 8 14V18C8 22.4183 11.5817 26 16 26V26Z" fill="#578CEE"/>
</svg>
