<svg width="392" height="373" viewBox="0 0 392 373" fill="none" xmlns="http://www.w3.org/2000/svg">
<g clip-path="url(#clip0_685_12459)">
<path d="M206.613 64.288H131.289V75.7767H190.606L180.09 110.796L190.606 145.815H149.649C136.105 145.815 125.086 135.331 125.086 122.442V43.6746C125.086 31.5667 115.658 23.7432 101.066 23.7432H15.6157V116.418H101.066C105.528 116.418 113.012 117.184 113.012 124.844C114.314 142.95 130.296 157.304 149.65 157.304H206.614L192.649 110.796L206.613 64.288ZM113.012 107.194C109.592 105.728 105.56 104.93 101.066 104.93H27.6896V35.2319H101.066C110.941 35.2319 113.012 39.823 113.012 43.6746V107.194Z" fill="#3261A8"/>
<path d="M27.6896 0H15.6157V17.6162H27.6896V0Z" fill="#3261A8"/>
<path d="M27.6896 122.546H15.6157V366.873H27.6896V122.546Z" fill="#3261A8"/>
<path d="M260.313 78.8887H248.239V91.143H260.313V78.8887Z" fill="#3261A8"/>
<path d="M357.71 163.14H345.636V174.628H357.71V163.14Z" fill="#3261A8"/>
<path d="M162.112 244.327H150.038V256.581H162.112V244.327Z" fill="#3261A8"/>
<path d="M345.637 333.938V361.511H58.2771V373H357.711V333.938H345.637Z" fill="#3261A8"/>
<path d="M315.049 122.546H290.901V134.035H315.049V122.546Z" fill="#3261A8"/>
<path d="M278.299 122.547C277.149 112.988 269.876 105.177 260.313 102.764V96.5059H248.239V102.663C237.592 105.156 229.669 114.314 229.669 125.204C229.67 138.004 240.614 148.418 254.067 148.418C264.233 148.418 272.965 142.467 276.624 134.036H284.462V122.547L278.299 122.547ZM254.067 136.929C247.272 136.929 241.743 131.668 241.743 125.203C241.743 118.737 247.272 113.477 254.067 113.477C260.862 113.477 266.39 118.737 266.39 125.203C266.39 131.668 260.862 136.929 254.067 136.929Z" fill="#3261A8"/>
<path d="M351.987 105.052C340.608 105.052 331.026 112.503 328.341 122.546H321.489V134.035H328.354C330.533 142.117 337.184 148.509 345.637 150.68V157.012H357.711V150.83C368.41 148.371 376.384 139.191 376.384 128.267C376.384 115.466 365.439 105.052 351.987 105.052ZM351.987 139.992C345.192 139.992 339.663 134.731 339.663 128.266C339.663 121.8 345.192 116.54 351.987 116.54C358.781 116.54 364.31 121.8 364.31 128.266C364.31 134.731 358.781 139.992 351.987 139.992Z" fill="#3261A8"/>
<path d="M254.067 20.4595C240.614 20.4595 229.669 30.8736 229.669 43.6744C229.67 54.5649 237.593 63.7224 248.24 66.2154V73.5275H260.314V66.1141C270.75 63.4805 278.464 54.42 278.464 43.6744C278.464 30.8736 267.519 20.4595 254.067 20.4595ZM254.067 55.4013C247.272 55.4013 241.743 50.1407 241.743 43.6751C241.743 37.2095 247.272 31.9489 254.067 31.9489C260.862 31.9489 266.39 37.2095 266.39 43.6751C266.39 50.1407 260.862 55.4013 254.067 55.4013Z" fill="#3261A8"/>
<path d="M180.391 288.75C179.263 279.059 171.843 271.148 162.113 268.812V261.943H150.04V268.844H150.039C139.532 271.43 131.75 280.527 131.75 291.322C131.75 304.123 142.694 314.537 156.147 314.537C166.28 314.537 174.988 308.627 178.669 300.24H187.067V288.752H180.391V288.75ZM156.146 303.046C149.351 303.046 143.823 297.786 143.823 291.32C143.823 284.855 149.351 279.594 156.146 279.594C162.941 279.594 168.47 284.855 168.47 291.32C168.47 297.785 162.941 303.046 156.146 303.046Z" fill="#3261A8"/>
<path d="M277.919 289.516C275.561 279.046 265.764 271.17 254.067 271.17C242.656 271.17 233.054 278.664 230.4 288.749H223.288V300.238H230.456C233.189 310.214 242.738 317.599 254.067 317.599C265.102 317.599 274.445 310.589 277.447 301.005H284.461V289.516H277.919ZM254.067 306.111C247.272 306.111 241.743 300.851 241.743 294.385C241.743 287.92 247.272 282.659 254.067 282.659C260.861 282.659 266.39 287.92 266.39 294.385C266.39 300.851 260.861 306.111 254.067 306.111Z" fill="#3261A8"/>
<path d="M351.987 271.17C340.29 271.17 330.493 279.046 328.135 289.516H321.489V301.005H328.606C331.011 308.682 337.484 314.703 345.637 316.797V327.045H357.711V316.947C368.41 314.489 376.384 305.309 376.384 294.385C376.384 281.585 365.439 271.17 351.987 271.17ZM351.987 306.111C345.192 306.111 339.663 300.85 339.663 294.385C339.663 287.919 345.192 282.658 351.987 282.658C358.781 282.658 364.31 287.919 364.31 294.385C364.31 300.85 358.781 306.111 351.987 306.111Z" fill="#3261A8"/>
<path d="M156.146 186.58C142.693 186.58 131.749 196.994 131.749 209.794C131.749 220.59 139.531 229.686 150.038 232.273V238.966H162.112V232.304C170.865 230.202 177.748 223.587 179.862 215.223H187.064V203.734H179.694C176.885 193.863 167.395 186.58 156.146 186.58ZM156.146 221.52C149.351 221.52 143.823 216.259 143.823 209.794C143.823 203.328 149.351 198.068 156.146 198.068C162.941 198.068 168.47 203.328 168.47 209.794C168.47 216.259 162.941 221.52 156.146 221.52Z" fill="#3261A8"/>
<path d="M277.615 203.733C274.806 193.863 265.316 186.58 254.067 186.58C242.818 186.58 233.327 193.863 230.518 203.733H223.288V215.222H230.35C232.925 225.412 242.578 233.009 254.067 233.009C265.555 233.009 275.207 225.412 277.784 215.222H284.463V203.733H277.615ZM254.067 221.521C247.272 221.521 241.743 216.26 241.743 209.794C241.743 203.329 247.272 198.068 254.067 198.068C260.861 198.068 266.39 203.329 266.39 209.794C266.39 216.261 260.861 221.521 254.067 221.521Z" fill="#3261A8"/>
<path d="M357.711 187.231V180.756H345.637V187.382C337.286 189.526 330.699 195.791 328.439 203.733H321.489V215.222H328.27C330.846 225.412 340.499 233.009 351.988 233.009C365.44 233.009 376.384 222.595 376.384 209.794C376.384 198.869 368.41 189.689 357.711 187.231ZM351.987 221.52C345.192 221.52 339.663 216.259 339.663 209.794C339.663 203.328 345.192 198.068 351.987 198.068C358.781 198.068 364.31 203.328 364.31 209.794C364.31 216.259 358.781 221.52 351.987 221.52Z" fill="#3261A8"/>
<path d="M217.652 203.733H192.699V215.222H217.652V203.733Z" fill="#3261A8"/>
<path d="M217.652 288.75H192.699V300.238H217.652V288.75Z" fill="#3261A8"/>
<path d="M315.049 203.733H290.901V215.222H315.049V203.733Z" fill="#3261A8"/>
<path d="M315.049 289.516H290.901V301.004H315.049V289.516Z" fill="#3261A8"/>
</g>
<defs>
<clipPath id="clip0_685_12459">
<rect width="392" height="373" fill="white"/>
</clipPath>
</defs>
</svg>
