<svg width="65" height="52" viewBox="0 0 65 52" fill="none" xmlns="http://www.w3.org/2000/svg">
<ellipse cx="32.5" cy="26" rx="32.5" ry="26" fill="#5644FC"/>
<path d="M39.8261 21.2728C38.5295 21.2728 37.4783 19.8685 37.4783 18.1364C37.4783 16.4042 38.5295 15 39.8261 15H47.6522C48.9488 15 50 16.4042 50 18.1364V28.591C50 30.3231 48.9488 31.7273 47.6522 31.7273C46.3555 31.7273 45.3043 30.3231 45.3043 28.591V25.7084L39.004 34.1244C36.8647 36.9822 33.3962 36.9822 31.2568 34.1244L26.2926 27.4928C25.9867 27.0847 25.4914 27.0847 25.1857 27.4928L18.008 37.0814C17.0911 38.3062 15.6045 38.3062 14.6877 37.0814C13.7708 35.8565 13.7708 33.871 14.6877 32.6461L21.8654 23.0576C24.0048 20.1997 27.4734 20.1997 29.6127 23.0576L34.577 29.6891C34.8828 30.0973 35.378 30.0973 35.6839 29.6891L41.9839 21.2728H39.8261Z" fill="white"/>
</svg>
