<svg xmlns="http://www.w3.org/2000/svg" viewBox="0 0 162.32 162.32"><defs><style>.cls-1{fill:#344c9a;}.cls-2{fill:#fff;}</style></defs><g id="Capa_2" data-name="Capa 2"><g id="Capa_1-2" data-name="Capa 1"><circle class="cls-1" cx="81.16" cy="81.16" r="81.16"/><path class="cls-2" d="M45.67,97.64c1.29-1.89,3.16-7.1,6.16-4.3l20.63,19.33C95.48,133,108.23,91.53,118.27,78l1.34,9.48c2,13.49,18.45,11.17,16.61-2.34l-4.84-34.38c-.8-5.69-5.17-9.79-9.76-9.14l-27.69,3.9c-10.84,1.55-8,22.13,2.9,20.62l7.64-1.07L86.07,95.88a2.42,2.42,0,0,1-3.91.55C69.5,85.64,49.55,57.22,34.11,81c-7.79,13-15.89,26.61-23.78,39.87A81.4,81.4,0,0,0,22.23,137L45.67,97.64Z"/></g></g></svg>