<svg width="29" height="27" viewBox="0 0 29 27" fill="none" xmlns="http://www.w3.org/2000/svg">
<path d="M23.1984 22.1571C23.1984 18.2412 18.1043 17.375 14.4656 17.375C10.827 17.375 5.73285 18.2412 5.73285 22.1571M27.5648 13.5C27.5648 19.9203 21.7001 25.125 14.4656 25.125C7.23116 25.125 1.36646 19.9203 1.36646 13.5C1.36646 7.07969 7.23116 1.875 14.4656 1.875C21.7001 1.875 27.5648 7.07969 27.5648 13.5ZM18.832 9.625C18.832 11.7651 16.8771 13.5 14.4656 13.5C12.0541 13.5 10.0992 11.7651 10.0992 9.625C10.0992 7.4849 12.0541 5.75 14.4656 5.75C16.8771 5.75 18.832 7.4849 18.832 9.625Z" stroke="#A3A1FF" stroke-width="2.6" stroke-linecap="round" stroke-linejoin="round"/>
</svg>
