<svg width="300" height="250" viewBox="0 0 300 250" fill="none" xmlns="http://www.w3.org/2000/svg">
<g clip-path="url(#clip0_685_12294)">
<path d="M39.6876 33.0868C39.6876 14.8113 57.4662 0 79.3918 0C101.317 0 119.096 14.8155 119.096 33.0868C119.096 51.3623 101.317 66.1736 79.3918 66.1736C57.4662 66.1736 39.6876 51.3623 39.6876 33.0868ZM80.644 235.295C80.644 243.893 71.7983 250.762 61.2696 249.931C52.0924 249.206 45.35 242.348 45.35 234.667V158.088C45.35 164.381 37.5496 169.425 29.9036 169.425C21.4579 169.425 14.47 163.46 14.47 157.483V128.677V102.94C14.47 88.7269 28.2984 77.2032 45.3544 77.2032H116.726C133.781 77.2032 147.609 88.7269 147.609 102.94V128.677V157.483C147.609 163.46 140.618 169.425 132.176 169.425C124.531 169.425 116.73 164.381 116.73 158.088V234.667C116.73 242.347 109.988 249.206 100.81 249.931C90.2824 250.762 81.4361 243.892 81.4361 235.295L80.644 235.295ZM247.994 135.262C250.661 141.515 257.752 146.019 266.168 146.019C276.86 146.019 285.53 138.795 285.53 129.884C285.53 120.974 276.86 113.749 266.168 113.749C257.752 113.749 250.657 118.253 247.994 124.506H212.385V31.2835H246.806C247.198 31.2835 247.58 31.2439 247.954 31.1865C250.592 37.4901 257.709 42.0395 266.167 42.0395C276.859 42.0395 285.529 34.8147 285.529 25.9047C285.529 16.9947 276.86 9.76996 266.167 9.76996C257.709 9.76996 250.592 14.3199 247.954 20.623C247.58 20.5655 247.198 20.5259 246.806 20.5259H205.931C202.368 20.5259 199.477 22.9351 199.477 25.9042V124.505H165.057C161.494 124.505 158.603 126.915 158.603 129.884C158.603 132.853 161.494 135.261 165.057 135.261H199.477V233.863C199.477 236.832 202.368 239.241 205.931 239.241H246.806C247.198 239.241 247.58 239.202 247.954 239.144C250.592 245.448 257.709 249.998 266.167 249.998C276.859 249.998 285.529 242.773 285.529 233.862C285.529 224.953 276.86 217.727 266.167 217.727C257.709 217.727 250.592 222.277 247.954 228.581C247.58 228.523 247.198 228.484 246.806 228.484H212.385V135.262H247.994Z" fill="#3261A8"/>
</g>
<defs>
<clipPath id="clip0_685_12294">
<rect width="300" height="250" fill="white"/>
</clipPath>
</defs>
</svg>
