<?xml version="1.0" encoding="utf-8"?>
<svg viewBox="0 0 500 500" xmlns="http://www.w3.org/2000/svg">
  <g transform="matrix(0.6978040933609009, 0, 0, 0.71064293384552, 34.53812841382813, 27.847559390180663)" style="">
    <path d="M595.905,119.929H417.056V62.811c0-11.395-9.239-20.633-20.628-20.633H215.58c-11.395,0-20.635,9.239-20.635,20.633v57.117 H16.097C7.205,119.929,0,127.132,0,136.022v400.33c0,8.892,7.205,16.097,16.097,16.097h49.544v13.88 c0,1.932,1.564,3.495,3.493,3.495h41.668c1.929,0,3.493-1.562,3.493-3.495v-13.88h383.415v13.88c0,1.932,1.562,3.495,3.491,3.495 h41.67c1.929,0,3.491-1.562,3.491-3.495v-13.88h49.546c8.891,0,16.095-7.205,16.095-16.097v-400.33 C612,127.132,604.796,119.929,595.905,119.929z M240.013,87.243h131.976v32.686H240.013V87.243z" style="fill:#578CEE"/>
  </g>
  <path d="M 213.255 248.354 L 192.138 248.354 C 190.139 242.656 188.715 236.959 188.715 230.77 C 188.715 199.564 211.823 178.762 247.775 178.762 C 281.154 178.762 302.271 194.61 305.978 222.846 C 306.261 224.826 306.261 227.053 306.261 229.288 C 306.261 242.411 302.263 253.561 291.992 262.72 C 282.004 271.391 275.156 277.087 264.318 285.258 C 252.624 294.173 252.624 309.53 252.624 320.917 L 230.658 320.917 C 230.658 294.173 237.504 283.032 247.492 274.361 C 257.198 265.937 271.176 258.513 278.589 250.342 C 284.87 243.9 286.578 236.229 286.578 229.296 C 286.578 207.749 272.6 195.617 247.775 195.617 C 222.669 195.617 208.399 209.24 208.399 230.785 C 208.399 237.227 210.115 242.918 213.247 248.37 L 213.255 248.354 Z M 230.658 340.729 L 252.624 340.729 L 252.624 359.794 L 230.658 359.794 L 230.658 340.729 Z" style="fill: rgb(255, 255, 255);"/>
</svg>