<svg width="27" height="25" viewBox="0 0 27 25" fill="none" xmlns="http://www.w3.org/2000/svg">
<path fill-rule="evenodd" clip-rule="evenodd" d="M0 2.67857C0 1.19924 1.29518 0 2.89286 0H4.82143C6.41911 0 7.71429 1.19924 7.71429 2.67857H15.6866C16.02 2.14482 16.6433 1.78571 17.3571 1.78571C18.4223 1.78571 19.2857 2.58521 19.2857 3.57143C19.2857 4.55765 18.4223 5.35714 17.3571 5.35714C16.6433 5.35714 16.02 4.99804 15.6866 4.46429H11.8107C12.1562 4.78466 12.4674 5.14532 12.7442 5.54397C13.9742 7.31563 14.4643 9.749 14.4643 12.5C14.4643 16.0591 14.9596 18.0222 15.8384 19.1071C16.5263 19.9564 17.5657 20.3951 19.2859 20.5067C19.3027 19.0408 20.5913 17.8571 22.1786 17.8571H24.1071C25.7048 17.8571 27 19.0564 27 20.5357V22.3214C27 23.8008 25.7048 25 24.1071 25H22.1786C20.5809 25 19.2857 23.8008 19.2857 22.3214H11.3134C10.98 22.8552 10.3567 23.2143 9.64286 23.2143C8.57774 23.2143 7.71429 22.4148 7.71429 21.4286C7.71429 20.4423 8.57774 19.6429 9.64286 19.6429C10.3567 19.6429 10.98 20.002 11.3134 20.5357H14.6131C14.5033 20.4233 14.3974 20.3043 14.2955 20.1786C13.0047 18.5849 12.5357 16.0838 12.5357 12.5C12.5357 9.89386 12.0615 7.86294 11.1219 6.5096C10.371 5.42811 9.28572 4.72225 7.71362 4.52247C7.68019 5.97494 6.39811 7.14286 4.82143 7.14286H2.89286C1.29518 7.14286 0 5.94362 0 4.46429V2.67857ZM2.89286 1.78571C2.3603 1.78571 1.92857 2.18546 1.92857 2.67857V4.46429C1.92857 4.9574 2.3603 5.35714 2.89286 5.35714H4.82143C5.35399 5.35714 5.78571 4.9574 5.78571 4.46429V2.67857C5.78571 2.18546 5.35399 1.78571 4.82143 1.78571H2.89286ZM22.1786 19.6429C21.646 19.6429 21.2143 20.0426 21.2143 20.5357V22.3214C21.2143 22.8145 21.646 23.2143 22.1786 23.2143H24.1071C24.6397 23.2143 25.0714 22.8145 25.0714 22.3214V20.5357C25.0714 20.0426 24.6397 19.6429 24.1071 19.6429H22.1786Z" fill="#578CEE"/>
</svg>
