<svg version="1.0" xmlns="http://www.w3.org/2000/svg"
 width="30" height="27" viewBox="0 0 512.000000 512.000000"
 preserveAspectRatio="xMidYMid meet" fill="#578CEE">

<g transform="translate(0.000000,512.000000) scale(0.100000,-0.100000)" fill="#578CEE" stroke="#578CEE">
  <path d="M2385 5114 c-118 -13 -271 -38 -356 -59 -867 -219 -1508 -926 -1646
  -1815 -24 -159 -24 -481 0 -640 157 -1009 959 -1771 1971 -1869 726 -71 1458
  237 1916 806 359 444 534 1026 479 1589 -74 766 -536 1434 -1224 1770 -203 99
  -414 165 -635 199 -101 15 -423 27 -505 19z m363 -405 c531 -58 1010 -347
  1305 -787 75 -111 178 -320 216 -437 204 -633 56 -1303 -397 -1796 -233 -253
  -587 -453 -932 -527 -637 -137 -1305 84 -1731 572 -589 673 -598 1661 -22
  2347 378 451 978 692 1561 628z"/>
  <path d="M3292 4109 c-45 -13 -108 -80 -121 -126 -7 -25 -11 -280 -11 -750 l0
  -713 -200 0 -199 0 -3 533 -3 533 -27 41 c-41 62 -90 88 -168 88 -78 0 -127
  -26 -168 -88 l-27 -41 -3 -533 -3 -533 -199 0 -199 0 -3 333 c-3 330 -3 332
  -27 370 -13 21 -42 50 -64 65 -34 23 -52 27 -107 27 -55 0 -73 -4 -107 -27
  -22 -15 -51 -44 -64 -65 -24 -38 -24 -40 -27 -370 l-3 -331 -132 -4 c-118 -3
  -136 -5 -170 -27 -21 -13 -50 -42 -65 -64 -23 -34 -27 -52 -27 -107 0 -55 4
  -73 27 -107 15 -22 44 -51 65 -64 l38 -24 1266 0 1265 0 41 27 c-63 41 88 90
  88 169 0 54 -5 72 -27 106 -15 22 -44 51 -65 64 -34 22 -52 24 -170 27 l-133
  4 -2 731 -3 732 -24 38 c-47 76 -151 113 -239 86z"/>
  <path d="M1015 793 c-80 -42 -91 -62 -185 -348 -63 -191 -72 -226 -66 -269 7
  -60 42 -116 93 -147 l38 -24 1665 0 1665 0 38 24 c-51 31 86 87 93 147 6 43 -3
  78 -66 269 -78 235 -90 267 -124 303 -87 96 -259 74 -319 -40 -31 -61 -31
  -104 -2 -197 15 -47 29 -91 32 -98 4 -11 -225 -13 -1317 -13 -1166 0 -1321 2
  -1316 15 3 8 17 53 32 101 24 78 26 91 15 137 -15 65 -49 109 -104 136 -52 25
  -129 27 -172 4z"/>
</g>
</svg>
