<svg width="27" height="24" viewBox="0 0 27 24" fill="none" xmlns="http://www.w3.org/2000/svg">
<path d="M6.43883 1.5C2.66899 1.5 1.50903 2.52941 1.50903 5.875C1.50903 9.22059 2.66899 10.25 6.43883 10.25C10.2087 10.25 11.3686 9.22059 11.3686 5.875C11.3686 2.52941 10.2087 1.5 6.43883 1.5Z" stroke="#5644FC" stroke-width="2.6" stroke-linecap="round" stroke-linejoin="round"/>
<path d="M6.43883 13.75C2.66899 13.75 1.50903 14.7794 1.50903 18.125C1.50903 21.4706 2.66899 22.5 6.43883 22.5C10.2087 22.5 11.3686 21.4706 11.3686 18.125C11.3686 14.7794 10.2087 13.75 6.43883 13.75Z" stroke="#5644FC" stroke-width="2.6" stroke-linecap="round" stroke-linejoin="round"/>
<path d="M20.2423 13.75C16.4724 13.75 15.3125 14.7794 15.3125 18.125C15.3125 21.4706 16.4724 22.5 20.2423 22.5C24.0121 22.5 25.1721 21.4706 25.1721 18.125C25.1721 14.7794 24.0121 13.75 20.2423 13.75Z" stroke="#5644FC" stroke-width="2.6" stroke-linecap="round" stroke-linejoin="round"/>
<path d="M20.2423 1.5C16.4724 1.5 15.3125 2.52941 15.3125 5.875C15.3125 9.22059 16.4724 10.25 20.2423 10.25C24.0121 10.25 25.1721 9.22059 25.1721 5.875C25.1721 2.52941 24.0121 1.5 20.2423 1.5Z" stroke="#5644FC" stroke-width="2.6" stroke-linecap="round" stroke-linejoin="round"/>
</svg>
