<svg width="300" height="250" viewBox="0 0 300 250" fill="none" xmlns="http://www.w3.org/2000/svg">
<path d="M239.062 19.5315H193.172C191.88 18.3017 190.287 17.3168 188.5 16.643C186.713 15.9692 184.774 15.6222 182.812 15.6252H160.359C159.066 14.3967 157.473 13.4124 155.686 12.738C153.9 12.0637 151.961 11.7148 150 11.7148C148.039 11.7148 146.1 12.0637 144.314 12.738C142.527 13.4124 140.934 14.3967 139.641 15.6252H117.188C115.226 15.6222 113.287 15.9692 111.5 16.643C109.713 17.3168 108.12 18.3017 106.828 19.5315H60.9375C58.4511 19.5315 56.0665 20.3546 54.3084 21.8197C52.5502 23.2848 51.5625 25.272 51.5625 27.344V230.469C51.5625 232.541 52.5502 234.528 54.3084 235.993C56.0665 237.458 58.4511 238.281 60.9375 238.281H239.062C241.549 238.281 243.933 237.458 245.692 235.993C247.45 234.528 248.438 232.541 248.438 230.469V27.344C248.438 25.272 247.45 23.2848 245.692 21.8197C243.933 20.3546 241.549 19.5315 239.062 19.5315ZM145.922 21.4846C146.335 20.8885 146.93 20.3939 147.646 20.0509C148.362 19.7079 149.174 19.5287 150 19.5315C150.831 19.5327 151.646 19.7178 152.362 20.0678C153.079 20.4178 153.671 20.9203 154.078 21.5237C154.475 22.1075 154.685 22.7667 154.688 23.4377C154.688 24.4737 154.194 25.4673 153.315 26.1999C152.435 26.9324 151.243 27.344 150 27.344C148.757 27.344 147.565 26.9324 146.685 26.1999C145.806 25.4673 145.312 24.4737 145.312 23.4377C145.325 22.7554 145.534 22.0855 145.922 21.4846ZM150 35.1565C153.73 35.1565 157.306 33.9218 159.944 31.7241C162.581 29.5264 164.062 26.5457 164.062 23.4377H182.812C183.643 23.4389 184.458 23.624 185.175 23.9741C185.892 24.3241 186.484 24.8265 186.891 25.4299C187.288 26.0137 187.498 26.6729 187.5 27.344V35.1565C187.5 36.1925 187.006 37.186 186.127 37.9186C185.248 38.6512 184.056 39.0627 182.812 39.0627H117.188C115.944 39.0627 114.752 38.6512 113.873 37.9186C112.994 37.186 112.5 36.1925 112.5 35.1565V27.344C112.512 26.6616 112.721 25.9918 113.109 25.3908C113.522 24.7947 114.117 24.3001 114.833 23.9572C115.549 23.6142 116.362 23.435 117.188 23.4377H135.938C135.938 26.5457 137.419 29.5264 140.056 31.7241C142.694 33.9218 146.27 35.1565 150 35.1565ZM239.062 230.469H60.9375V27.344H103.125V35.1565C103.125 38.2645 104.607 41.2452 107.244 43.4429C109.881 45.6406 113.458 46.8752 117.188 46.8752H182.812C186.542 46.8752 190.119 45.6406 192.756 43.4429C195.393 41.2452 196.875 38.2645 196.875 35.1565V27.344H239.062V230.469Z" fill="#3261A8"/>
<path d="M75 218.75H225V58.5938H75V218.75ZM84.375 66.4062H215.625V210.938H84.375V66.4062Z" fill="#3261A8"/>
<path d="M206.25 85.9375H121.875V93.75H206.25V85.9375Z" fill="#3261A8"/>
<path d="M112.5 85.9375H93.75V93.75H112.5V85.9375Z" fill="#3261A8"/>
<path d="M206.25 105.469H121.875V113.281H206.25V105.469Z" fill="#3261A8"/>
<path d="M112.5 105.469H93.75V113.281H112.5V105.469Z" fill="#3261A8"/>
<path d="M206.25 125H121.875V132.812H206.25V125Z" fill="#3261A8"/>
<path d="M112.5 125H93.75V132.812H112.5V125Z" fill="#3261A8"/>
<path d="M206.25 144.531H121.875V152.344H206.25V144.531Z" fill="#3261A8"/>
<path d="M112.5 144.531H93.75V152.344H112.5V144.531Z" fill="#3261A8"/>
<path d="M206.25 164.062H121.875V171.875H206.25V164.062Z" fill="#3261A8"/>
<path d="M112.5 164.062H93.75V171.875H112.5V164.062Z" fill="#3261A8"/>
<path d="M206.25 183.594H121.875V191.406H206.25V183.594Z" fill="#3261A8"/>
<path d="M112.5 183.594H93.75V191.406H112.5V183.594Z" fill="#3261A8"/>
</svg>
