<svg width="30" height="27" viewBox="0 0 30 27" fill="#1E4176" xmlns="http://www.w3.org/2000/svg">
<path d="M24.375 10.9688C24.375 10.5028 23.9553 10.125 23.4375 10.125H14.0625C13.5447 10.125 13.125 10.5028 13.125 10.9688C13.125 11.4347 13.5447 11.8125 14.0625 11.8125H23.4375C23.9553 11.8125 24.375 11.4347 24.375 10.9688Z" fill="#578CEE"/>
<path d="M24.375 16.0312C24.375 15.5653 23.9553 15.1875 23.4375 15.1875H14.0625C13.5447 15.1875 13.125 15.5653 13.125 16.0312C13.125 16.4972 13.5447 16.875 14.0625 16.875H23.4375C23.9553 16.875 24.375 16.4972 24.375 16.0312Z" fill="#578CEE"/>
<path d="M23.4375 20.25C23.9553 20.25 24.375 20.6278 24.375 21.0938C24.375 21.5597 23.9553 21.9375 23.4375 21.9375H14.0625C13.5447 21.9375 13.125 21.5597 13.125 21.0938C13.125 20.6278 13.5447 20.25 14.0625 20.25H23.4375Z" fill="#578CEE"/>
<path d="M26.25 0C28.3211 0 30 1.51104 30 3.375V23.625C30 25.489 28.3211 27 26.25 27H3.75C1.67893 27 0 25.489 0 23.625V3.375C0 1.51104 1.67893 0 3.75 0H26.25ZM3.75 1.6875C2.71447 1.6875 1.875 2.44302 1.875 3.375V5.0625H28.125V3.375C28.125 2.44302 27.2855 1.6875 26.25 1.6875H3.75ZM1.875 6.75V23.625C1.875 24.557 2.71447 25.3125 3.75 25.3125H7.5V6.75H1.875ZM9.375 6.75V25.3125H26.25C27.2855 25.3125 28.125 24.557 28.125 23.625V6.75H9.375Z" fill="#578CEE"/>
</svg>
