<svg width="32" height="29" viewBox="0 0 32 29" fill="#1E4176" xmlns="http://www.w3.org/2000/svg">
<path d="M24 29C28.4183 29 32 25.7541 32 21.75C32 17.7459 28.4183 14.5 24 14.5C19.5817 14.5 16 17.7459 16 21.75C16 25.7541 19.5817 29 24 29ZM24.8081 16.8748L28.2367 19.9819C28.683 20.3864 28.683 21.0422 28.2367 21.4466C27.7904 21.8511 27.0668 21.8511 26.6204 21.4466L25.1429 20.1076V25.8929C25.1429 26.4649 24.6312 26.9286 24 26.9286C23.3688 26.9286 22.8571 26.4649 22.8571 25.8929V20.1076L21.3796 21.4466C20.9332 21.8511 20.2096 21.8511 19.7633 21.4466C19.317 21.0422 19.317 20.3864 19.7633 19.9819L23.1919 16.8748C23.4062 16.6805 23.6969 16.5714 24 16.5714C24.3031 16.5714 24.5938 16.6805 24.8081 16.8748Z" fill="#578CEE"/>
<path d="M20.5714 6.21429C20.5714 9.64634 17.5014 12.4286 13.7143 12.4286C9.92719 12.4286 6.85714 9.64634 6.85714 6.21429C6.85714 2.78223 9.92719 0 13.7143 0C17.5014 0 20.5714 2.78223 20.5714 6.21429ZM13.7143 10.3571C16.239 10.3571 18.2857 8.50232 18.2857 6.21429C18.2857 3.92625 16.239 2.07143 13.7143 2.07143C11.1896 2.07143 9.14286 3.92625 9.14286 6.21429C9.14286 8.50232 11.1896 10.3571 13.7143 10.3571Z" fill="#578CEE"/>
<path d="M14.2996 24.8571C14.0415 24.1954 13.8635 23.4993 13.7762 22.7785H2.28571C2.28897 22.2673 2.63715 20.7359 4.18765 19.3308C5.67852 17.9797 8.48202 16.5714 13.7143 16.5714C14.3097 16.5714 14.8737 16.5897 15.4078 16.624C15.9225 15.9169 16.5405 15.2771 17.2425 14.7223C16.1762 14.5791 15.0034 14.5 13.7143 14.5C2.28572 14.5 0 20.7143 0 22.7857C0 24.8571 2.28571 24.8571 2.28571 24.8571H14.2996Z" fill="#578CEE"/>
</svg>
